<svg xmlns="http://www.w3.org/2000/svg" width="1024" height="1024" viewBox="0 0 1024 1024">
<defs>
  <linearGradient id="bgt" x1="0" y1="100" x2="0" y2="924" gradientUnits="userSpaceOnUse">
    <stop offset="0" stop-color="#285b47"/><stop offset="1" stop-color="#122f25"/></linearGradient>
  <radialGradient id="lightt" cx="413.12" cy="100" r="700.4" gradientUnits="userSpaceOnUse">
    <stop offset="0" stop-color="#5aa685" stop-opacity=".32"/><stop offset="1" stop-color="#5aa685" stop-opacity="0"/></radialGradient>
  <linearGradient id="creamt" x1="0" y1="260.5" x2="0" y2="768.8" gradientUnits="userSpaceOnUse">
    <stop offset="0" stop-color="#fffbf3"/><stop offset="1" stop-color="#f3ead9"/></linearGradient>
  <linearGradient id="mintt" x1="0" y1="662.5" x2="0" y2="768.8" gradientUnits="userSpaceOnUse">
    <stop offset="0" stop-color="#d9f7df"/><stop offset="1" stop-color="#94d9a8"/></linearGradient>
  <radialGradient id="glowt" cx="715.64" cy="715.64" r="92.9" gradientUnits="userSpaceOnUse">
    <stop offset=".55" stop-color="#a6f2c0" stop-opacity=".26"/><stop offset="1" stop-color="#a6f2c0" stop-opacity="0"/></radialGradient>
  <mask id="gapt" maskUnits="userSpaceOnUse" x="0" y="0" width="2000" height="2000">
    <rect width="2000" height="2000" fill="#fff"/><g fill="#000"><circle cx="462.44" cy="299.89" r="53.11"/><circle cx="299.89" cy="462.44" r="53.11"/><circle cx="577.38" cy="577.38" r="53.11"/><circle cx="715.64" cy="715.64" r="66.79"/></g></mask>
  <filter id="liftt" x="-20%" y="-20%" width="140%" height="140%">
    <feDropShadow dx="0" dy="7.1" stdDeviation="8.9" flood-color="#06140f" flood-opacity=".3"/></filter>
  <clipPath id="clipt"><path d="M924.00,512.00L923.94,576.54L923.75,603.26L923.44,623.75L923.01,640.99L922.45,656.15L921.76,669.82L920.96,682.35L920.02,693.98L918.96,704.85L917.78,715.09L916.47,724.77L915.03,733.98L913.47,742.75L911.78,751.13L909.96,759.16L908.01,766.87L905.93,774.27L903.72,781.40L901.38,788.26L898.91,794.87L896.31,801.25L893.57,807.41L890.69,813.35L887.68,819.09L884.53,824.63L881.24,829.99L877.81,835.16L874.23,840.15L870.51,844.97L866.64,849.63L862.62,854.12L858.45,858.45L854.12,862.62L849.63,866.64L844.97,870.51L840.15,874.23L835.16,877.81L829.99,881.24L824.63,884.53L819.09,887.68L813.35,890.69L807.41,893.57L801.25,896.31L794.87,898.91L788.26,901.38L781.40,903.72L774.27,905.93L766.87,908.01L759.16,909.96L751.13,911.78L742.75,913.47L733.98,915.03L724.77,916.47L715.09,917.78L704.85,918.96L693.98,920.02L682.35,920.96L669.82,921.76L656.15,922.45L640.99,923.01L623.75,923.44L603.26,923.75L576.54,923.94L512.00,924.00L447.46,923.94L420.74,923.75L400.25,923.44L383.01,923.01L367.85,922.45L354.18,921.76L341.65,920.96L330.02,920.02L319.15,918.96L308.91,917.78L299.23,916.47L290.02,915.03L281.25,913.47L272.87,911.78L264.84,909.96L257.13,908.01L249.73,905.93L242.60,903.72L235.74,901.38L229.13,898.91L222.75,896.31L216.59,893.57L210.65,890.69L204.91,887.68L199.37,884.53L194.01,881.24L188.84,877.81L183.85,874.23L179.03,870.51L174.37,866.64L169.88,862.62L165.55,858.45L161.38,854.12L157.36,849.63L153.49,844.97L149.77,840.15L146.19,835.16L142.76,829.99L139.47,824.63L136.32,819.09L133.31,813.35L130.43,807.41L127.69,801.25L125.09,794.87L122.62,788.26L120.28,781.40L118.07,774.27L115.99,766.87L114.04,759.16L112.22,751.13L110.53,742.75L108.97,733.98L107.53,724.77L106.22,715.09L105.04,704.85L103.98,693.98L103.04,682.35L102.24,669.82L101.55,656.15L100.99,640.99L100.56,623.75L100.25,603.26L100.06,576.54L100.00,512.00L100.06,447.46L100.25,420.74L100.56,400.25L100.99,383.01L101.55,367.85L102.24,354.18L103.04,341.65L103.98,330.02L105.04,319.15L106.22,308.91L107.53,299.23L108.97,290.02L110.53,281.25L112.22,272.87L114.04,264.84L115.99,257.13L118.07,249.73L120.28,242.60L122.62,235.74L125.09,229.13L127.69,222.75L130.43,216.59L133.31,210.65L136.32,204.91L139.47,199.37L142.76,194.01L146.19,188.84L149.77,183.85L153.49,179.03L157.36,174.37L161.38,169.88L165.55,165.55L169.88,161.38L174.37,157.36L179.03,153.49L183.85,149.77L188.84,146.19L194.01,142.76L199.37,139.47L204.91,136.32L210.65,133.31L216.59,130.43L222.75,127.69L229.13,125.09L235.74,122.62L242.60,120.28L249.73,118.07L257.13,115.99L264.84,114.04L272.87,112.22L281.25,110.53L290.02,108.97L299.23,107.53L308.91,106.22L319.15,105.04L330.02,103.98L341.65,103.04L354.18,102.24L367.85,101.55L383.01,100.99L400.25,100.56L420.74,100.25L447.46,100.06L512.00,100.00L576.54,100.06L603.26,100.25L623.75,100.56L640.99,100.99L656.15,101.55L669.82,102.24L682.35,103.04L693.98,103.98L704.85,105.04L715.09,106.22L724.77,107.53L733.98,108.97L742.75,110.53L751.13,112.22L759.16,114.04L766.87,115.99L774.27,118.07L781.40,120.28L788.26,122.62L794.87,125.09L801.25,127.69L807.41,130.43L813.35,133.31L819.09,136.32L824.63,139.47L829.99,142.76L835.16,146.19L840.15,149.77L844.97,153.49L849.63,157.36L854.12,161.38L858.45,165.55L862.62,169.88L866.64,174.37L870.51,179.03L874.23,183.85L877.81,188.84L881.24,194.01L884.53,199.37L887.68,204.91L890.69,210.65L893.57,216.59L896.31,222.75L898.91,229.13L901.38,235.74L903.72,242.60L905.93,249.73L908.01,257.13L909.96,264.84L911.78,272.87L913.47,281.25L915.03,290.02L916.47,299.23L917.78,308.91L918.96,319.15L920.02,330.02L920.96,341.65L921.76,354.18L922.45,367.85L923.01,383.01L923.44,400.25L923.75,420.74L923.94,447.46Z"/></clipPath>
  <linearGradient id="rimt" x1="0" y1="100" x2="0" y2="924" gradientUnits="userSpaceOnUse">
    <stop offset="0" stop-color="#fff" stop-opacity=".22"/><stop offset=".5" stop-color="#fff" stop-opacity="0"/></linearGradient>
</defs>
  <g clip-path="url(#clipt)">
  <path d="M924.00,512.00L923.94,576.54L923.75,603.26L923.44,623.75L923.01,640.99L922.45,656.15L921.76,669.82L920.96,682.35L920.02,693.98L918.96,704.85L917.78,715.09L916.47,724.77L915.03,733.98L913.47,742.75L911.78,751.13L909.96,759.16L908.01,766.87L905.93,774.27L903.72,781.40L901.38,788.26L898.91,794.87L896.31,801.25L893.57,807.41L890.69,813.35L887.68,819.09L884.53,824.63L881.24,829.99L877.81,835.16L874.23,840.15L870.51,844.97L866.64,849.63L862.62,854.12L858.45,858.45L854.12,862.62L849.63,866.64L844.97,870.51L840.15,874.23L835.16,877.81L829.99,881.24L824.63,884.53L819.09,887.68L813.35,890.69L807.41,893.57L801.25,896.31L794.87,898.91L788.26,901.38L781.40,903.72L774.27,905.93L766.87,908.01L759.16,909.96L751.13,911.78L742.75,913.47L733.98,915.03L724.77,916.47L715.09,917.78L704.85,918.96L693.98,920.02L682.35,920.96L669.82,921.76L656.15,922.45L640.99,923.01L623.75,923.44L603.26,923.75L576.54,923.94L512.00,924.00L447.46,923.94L420.74,923.75L400.25,923.44L383.01,923.01L367.85,922.45L354.18,921.76L341.65,920.96L330.02,920.02L319.15,918.96L308.91,917.78L299.23,916.47L290.02,915.03L281.25,913.47L272.87,911.78L264.84,909.96L257.13,908.01L249.73,905.93L242.60,903.72L235.74,901.38L229.13,898.91L222.75,896.31L216.59,893.57L210.65,890.69L204.91,887.68L199.37,884.53L194.01,881.24L188.84,877.81L183.85,874.23L179.03,870.51L174.37,866.64L169.88,862.62L165.55,858.45L161.38,854.12L157.36,849.63L153.49,844.97L149.77,840.15L146.19,835.16L142.76,829.99L139.47,824.63L136.32,819.09L133.31,813.35L130.43,807.41L127.69,801.25L125.09,794.87L122.62,788.26L120.28,781.40L118.07,774.27L115.99,766.87L114.04,759.16L112.22,751.13L110.53,742.75L108.97,733.98L107.53,724.77L106.22,715.09L105.04,704.85L103.98,693.98L103.04,682.35L102.24,669.82L101.55,656.15L100.99,640.99L100.56,623.75L100.25,603.26L100.06,576.54L100.00,512.00L100.06,447.46L100.25,420.74L100.56,400.25L100.99,383.01L101.55,367.85L102.24,354.18L103.04,341.65L103.98,330.02L105.04,319.15L106.22,308.91L107.53,299.23L108.97,290.02L110.53,281.25L112.22,272.87L114.04,264.84L115.99,257.13L118.07,249.73L120.28,242.60L122.62,235.74L125.09,229.13L127.69,222.75L130.43,216.59L133.31,210.65L136.32,204.91L139.47,199.37L142.76,194.01L146.19,188.84L149.77,183.85L153.49,179.03L157.36,174.37L161.38,169.88L165.55,165.55L169.88,161.38L174.37,157.36L179.03,153.49L183.85,149.77L188.84,146.19L194.01,142.76L199.37,139.47L204.91,136.32L210.65,133.31L216.59,130.43L222.75,127.69L229.13,125.09L235.74,122.62L242.60,120.28L249.73,118.07L257.13,115.99L264.84,114.04L272.87,112.22L281.25,110.53L290.02,108.97L299.23,107.53L308.91,106.22L319.15,105.04L330.02,103.98L341.65,103.04L354.18,102.24L367.85,101.55L383.01,100.99L400.25,100.56L420.74,100.25L447.46,100.06L512.00,100.00L576.54,100.06L603.26,100.25L623.75,100.56L640.99,100.99L656.15,101.55L669.82,102.24L682.35,103.04L693.98,103.98L704.85,105.04L715.09,106.22L724.77,107.53L733.98,108.97L742.75,110.53L751.13,112.22L759.16,114.04L766.87,115.99L774.27,118.07L781.40,120.28L788.26,122.62L794.87,125.09L801.25,127.69L807.41,130.43L813.35,133.31L819.09,136.32L824.63,139.47L829.99,142.76L835.16,146.19L840.15,149.77L844.97,153.49L849.63,157.36L854.12,161.38L858.45,165.55L862.62,169.88L866.64,174.37L870.51,179.03L874.23,183.85L877.81,188.84L881.24,194.01L884.53,199.37L887.68,204.91L890.69,210.65L893.57,216.59L896.31,222.75L898.91,229.13L901.38,235.74L903.72,242.60L905.93,249.73L908.01,257.13L909.96,264.84L911.78,272.87L913.47,281.25L915.03,290.02L916.47,299.23L917.78,308.91L918.96,319.15L920.02,330.02L920.96,341.65L921.76,354.18L922.45,367.85L923.01,383.01L923.44,400.25L923.75,420.74L923.94,447.46Z" fill="url(#bgt)"/>
  <path d="M924.00,512.00L923.94,576.54L923.75,603.26L923.44,623.75L923.01,640.99L922.45,656.15L921.76,669.82L920.96,682.35L920.02,693.98L918.96,704.85L917.78,715.09L916.47,724.77L915.03,733.98L913.47,742.75L911.78,751.13L909.96,759.16L908.01,766.87L905.93,774.27L903.72,781.40L901.38,788.26L898.91,794.87L896.31,801.25L893.57,807.41L890.69,813.35L887.68,819.09L884.53,824.63L881.24,829.99L877.81,835.16L874.23,840.15L870.51,844.97L866.64,849.63L862.62,854.12L858.45,858.45L854.12,862.62L849.63,866.64L844.97,870.51L840.15,874.23L835.16,877.81L829.99,881.24L824.63,884.53L819.09,887.68L813.35,890.69L807.41,893.57L801.25,896.31L794.87,898.91L788.26,901.38L781.40,903.72L774.27,905.93L766.87,908.01L759.16,909.96L751.13,911.78L742.75,913.47L733.98,915.03L724.77,916.47L715.09,917.78L704.85,918.96L693.98,920.02L682.35,920.96L669.82,921.76L656.15,922.45L640.99,923.01L623.75,923.44L603.26,923.75L576.54,923.94L512.00,924.00L447.46,923.94L420.74,923.75L400.25,923.44L383.01,923.01L367.85,922.45L354.18,921.76L341.65,920.96L330.02,920.02L319.15,918.96L308.91,917.78L299.23,916.47L290.02,915.03L281.25,913.47L272.87,911.78L264.84,909.96L257.13,908.01L249.73,905.93L242.60,903.72L235.74,901.38L229.13,898.91L222.75,896.31L216.59,893.57L210.65,890.69L204.91,887.68L199.37,884.53L194.01,881.24L188.84,877.81L183.85,874.23L179.03,870.51L174.37,866.64L169.88,862.62L165.55,858.45L161.38,854.12L157.36,849.63L153.49,844.97L149.77,840.15L146.19,835.16L142.76,829.99L139.47,824.63L136.32,819.09L133.31,813.35L130.43,807.41L127.69,801.25L125.09,794.87L122.62,788.26L120.28,781.40L118.07,774.27L115.99,766.87L114.04,759.16L112.22,751.13L110.53,742.75L108.97,733.98L107.53,724.77L106.22,715.09L105.04,704.85L103.98,693.98L103.04,682.35L102.24,669.82L101.55,656.15L100.99,640.99L100.56,623.75L100.25,603.26L100.06,576.54L100.00,512.00L100.06,447.46L100.25,420.74L100.56,400.25L100.99,383.01L101.55,367.85L102.24,354.18L103.04,341.65L103.98,330.02L105.04,319.15L106.22,308.91L107.53,299.23L108.97,290.02L110.53,281.25L112.22,272.87L114.04,264.84L115.99,257.13L118.07,249.73L120.28,242.60L122.62,235.74L125.09,229.13L127.69,222.75L130.43,216.59L133.31,210.65L136.32,204.91L139.47,199.37L142.76,194.01L146.19,188.84L149.77,183.85L153.49,179.03L157.36,174.37L161.38,169.88L165.55,165.55L169.88,161.38L174.37,157.36L179.03,153.49L183.85,149.77L188.84,146.19L194.01,142.76L199.37,139.47L204.91,136.32L210.65,133.31L216.59,130.43L222.75,127.69L229.13,125.09L235.74,122.62L242.60,120.28L249.73,118.07L257.13,115.99L264.84,114.04L272.87,112.22L281.25,110.53L290.02,108.97L299.23,107.53L308.91,106.22L319.15,105.04L330.02,103.98L341.65,103.04L354.18,102.24L367.85,101.55L383.01,100.99L400.25,100.56L420.74,100.25L447.46,100.06L512.00,100.00L576.54,100.06L603.26,100.25L623.75,100.56L640.99,100.99L656.15,101.55L669.82,102.24L682.35,103.04L693.98,103.98L704.85,105.04L715.09,106.22L724.77,107.53L733.98,108.97L742.75,110.53L751.13,112.22L759.16,114.04L766.87,115.99L774.27,118.07L781.40,120.28L788.26,122.62L794.87,125.09L801.25,127.69L807.41,130.43L813.35,133.31L819.09,136.32L824.63,139.47L829.99,142.76L835.16,146.19L840.15,149.77L844.97,153.49L849.63,157.36L854.12,161.38L858.45,165.55L862.62,169.88L866.64,174.37L870.51,179.03L874.23,183.85L877.81,188.84L881.24,194.01L884.53,199.37L887.68,204.91L890.69,210.65L893.57,216.59L896.31,222.75L898.91,229.13L901.38,235.74L903.72,242.60L905.93,249.73L908.01,257.13L909.96,264.84L911.78,272.87L913.47,281.25L915.03,290.02L916.47,299.23L917.78,308.91L918.96,319.15L920.02,330.02L920.96,341.65L921.76,354.18L922.45,367.85L923.01,383.01L923.44,400.25L923.75,420.74L923.94,447.46Z" fill="url(#lightt)"/>
  <circle cx="715.64" cy="715.64" r="92.9" fill="url(#glowt)"/>
  <g filter="url(#liftt)">
    <g mask="url(#gapt)">
      <circle cx="462.44" cy="462.44" r="162.55" fill="none" stroke="url(#creamt)" stroke-width="44.26"/>
      <line x1="577.38" y1="577.38" x2="715.64" y2="715.64" stroke="url(#creamt)" stroke-width="44.26"/>
    </g>
    <g fill="url(#creamt)"><circle cx="462.44" cy="299.89" r="39.43"/><circle cx="299.89" cy="462.44" r="39.43"/><circle cx="577.38" cy="577.38" r="39.43"/></g>
    <circle cx="715.64" cy="715.64" r="53.11" fill="url(#mintt)"/>
  </g>
  </g>
  <path d="M924.00,512.00L923.94,576.54L923.75,603.26L923.44,623.75L923.01,640.99L922.45,656.15L921.76,669.82L920.96,682.35L920.02,693.98L918.96,704.85L917.78,715.09L916.47,724.77L915.03,733.98L913.47,742.75L911.78,751.13L909.96,759.16L908.01,766.87L905.93,774.27L903.72,781.40L901.38,788.26L898.91,794.87L896.31,801.25L893.57,807.41L890.69,813.35L887.68,819.09L884.53,824.63L881.24,829.99L877.81,835.16L874.23,840.15L870.51,844.97L866.64,849.63L862.62,854.12L858.45,858.45L854.12,862.62L849.63,866.64L844.97,870.51L840.15,874.23L835.16,877.81L829.99,881.24L824.63,884.53L819.09,887.68L813.35,890.69L807.41,893.57L801.25,896.31L794.87,898.91L788.26,901.38L781.40,903.72L774.27,905.93L766.87,908.01L759.16,909.96L751.13,911.78L742.75,913.47L733.98,915.03L724.77,916.47L715.09,917.78L704.85,918.96L693.98,920.02L682.35,920.96L669.82,921.76L656.15,922.45L640.99,923.01L623.75,923.44L603.26,923.75L576.54,923.94L512.00,924.00L447.46,923.94L420.74,923.75L400.25,923.44L383.01,923.01L367.85,922.45L354.18,921.76L341.65,920.96L330.02,920.02L319.15,918.96L308.91,917.78L299.23,916.47L290.02,915.03L281.25,913.47L272.87,911.78L264.84,909.96L257.13,908.01L249.73,905.93L242.60,903.72L235.74,901.38L229.13,898.91L222.75,896.31L216.59,893.57L210.65,890.69L204.91,887.68L199.37,884.53L194.01,881.24L188.84,877.81L183.85,874.23L179.03,870.51L174.37,866.64L169.88,862.62L165.55,858.45L161.38,854.12L157.36,849.63L153.49,844.97L149.77,840.15L146.19,835.16L142.76,829.99L139.47,824.63L136.32,819.09L133.31,813.35L130.43,807.41L127.69,801.25L125.09,794.87L122.62,788.26L120.28,781.40L118.07,774.27L115.99,766.87L114.04,759.16L112.22,751.13L110.53,742.75L108.97,733.98L107.53,724.77L106.22,715.09L105.04,704.85L103.98,693.98L103.04,682.35L102.24,669.82L101.55,656.15L100.99,640.99L100.56,623.75L100.25,603.26L100.06,576.54L100.00,512.00L100.06,447.46L100.25,420.74L100.56,400.25L100.99,383.01L101.55,367.85L102.24,354.18L103.04,341.65L103.98,330.02L105.04,319.15L106.22,308.91L107.53,299.23L108.97,290.02L110.53,281.25L112.22,272.87L114.04,264.84L115.99,257.13L118.07,249.73L120.28,242.60L122.62,235.74L125.09,229.13L127.69,222.75L130.43,216.59L133.31,210.65L136.32,204.91L139.47,199.37L142.76,194.01L146.19,188.84L149.77,183.85L153.49,179.03L157.36,174.37L161.38,169.88L165.55,165.55L169.88,161.38L174.37,157.36L179.03,153.49L183.85,149.77L188.84,146.19L194.01,142.76L199.37,139.47L204.91,136.32L210.65,133.31L216.59,130.43L222.75,127.69L229.13,125.09L235.74,122.62L242.60,120.28L249.73,118.07L257.13,115.99L264.84,114.04L272.87,112.22L281.25,110.53L290.02,108.97L299.23,107.53L308.91,106.22L319.15,105.04L330.02,103.98L341.65,103.04L354.18,102.24L367.85,101.55L383.01,100.99L400.25,100.56L420.74,100.25L447.46,100.06L512.00,100.00L576.54,100.06L603.26,100.25L623.75,100.56L640.99,100.99L656.15,101.55L669.82,102.24L682.35,103.04L693.98,103.98L704.85,105.04L715.09,106.22L724.77,107.53L733.98,108.97L742.75,110.53L751.13,112.22L759.16,114.04L766.87,115.99L774.27,118.07L781.40,120.28L788.26,122.62L794.87,125.09L801.25,127.69L807.41,130.43L813.35,133.31L819.09,136.32L824.63,139.47L829.99,142.76L835.16,146.19L840.15,149.77L844.97,153.49L849.63,157.36L854.12,161.38L858.45,165.55L862.62,169.88L866.64,174.37L870.51,179.03L874.23,183.85L877.81,188.84L881.24,194.01L884.53,199.37L887.68,204.91L890.69,210.65L893.57,216.59L896.31,222.75L898.91,229.13L901.38,235.74L903.72,242.60L905.93,249.73L908.01,257.13L909.96,264.84L911.78,272.87L913.47,281.25L915.03,290.02L916.47,299.23L917.78,308.91L918.96,319.15L920.02,330.02L920.96,341.65L921.76,354.18L922.45,367.85L923.01,383.01L923.44,400.25L923.75,420.74L923.94,447.46Z" fill="none" stroke="url(#rimt)" stroke-width="3.00"/>
</svg>
